<?xml version="1.0" encoding="UTF-8" standalone="no"?>
<!-- Created with Inkscape (http://www.inkscape.org/) -->

<svg
   width="512"
   height="512"
   viewBox="0 0 512 512"
   version="1.1"
   id="svg1"
   xml:space="preserve"
   xmlns="http://www.w3.org/2000/svg"
   xmlns:svg="http://www.w3.org/2000/svg"><defs
     id="defs1" /><g
     id="layer1"><g
       style="display:inline;fill:#000000;fill-opacity:1"
       id="g19"
       transform="matrix(2.0189327,0,0,2.0189327,249.8064,248.00901)"><path
         d="m 20,18 c 0,2.2091 -3.5817,4 -8,4 -4.41828,0 -8,-1.7909 -8,-4 v -4.026 c 0.50221,0.6166 1.21495,1.1289 2.00774,1.5252 C 7.58004,16.2854 9.69967,16.75 12,16.75 c 2.3003,0 4.42,-0.4646 5.9923,-1.2508 C 18.7851,15.1029 19.4978,14.5906 20,13.974 Z"
         fill="#1c274c"
         id="path17"
         style="fill:#000000;fill-opacity:1"
         transform="matrix(11.494213,0,0,11.494213,-134.80451,-133.9725)" /><path
         d="m 12,10.75 c 2.3003,0 4.42,-0.4646 5.9923,-1.25075 C 18.7851,9.10285 19.4978,8.59059 20,7.97397 V 12 c 0,0.5 -1.7857,1.5911 -2.6786,2.1576 C 15.9983,14.8192 14.118,15.25 12,15.25 9.88205,15.25 8.00168,14.8192 6.67856,14.1576 5.5,13.5683 4,12.5 4,12 V 7.97397 C 4.50221,8.59059 5.21495,9.10285 6.00774,9.49925 7.58004,10.2854 9.69967,10.75 12,10.75 Z"
         fill="#1c274c"
         id="path18"
         style="fill:#000000;fill-opacity:1"
         transform="matrix(11.494213,0,0,11.494213,-134.80451,-133.9725)" /><path
         d="M 17.3214,8.15761 C 15.9983,8.81917 14.118,9.25 12,9.25 9.88205,9.25 8.00168,8.81917 6.67856,8.15761 6.16384,7.95596 5.00637,7.31492 4.2015,6.27935 4.06454,6.10313 4.00576,5.87853 4.03988,5.65798 4.06283,5.50969 4.0948,5.35695 4.13578,5.26226 4.82815,3.40554 8.0858,2 12,2 c 3.9142,0 7.1718,1.40554 7.8642,3.26226 0.041,0.09469 0.073,0.24743 0.0959,0.39572 0.0341,0.22055 -0.0246,0.44515 -0.1616,0.62137 -0.8049,1.03557 -1.9623,1.67661 -2.4771,1.87826 z"
         fill="#1c274c"
         id="path19"
         style="fill:#000000;fill-opacity:1"
         transform="matrix(11.494213,0,0,11.494213,-134.80451,-133.9725)" /></g><path
       id="polygon3"
       style="display:inline;fill:#000000;fill-opacity:1;stroke-width:23.5293"
       d="M 276.04706,168.09412 -10e-7,474.65883 150.16471,431.62355 180.35381,405.66114 512,37.341172 362.30588,80.258809 Z" /></g></svg>
