<svg width="512" height="512" xml:space="preserve" xmlns="http://www.w3.org/2000/svg"><g style="display:inline;fill-opacity:1"><path d="M20 18c0 2.2091-3.5817 4-8 4-4.41828 0-8-1.7909-8-4v-4.026c.50221.6166 1.21495 1.1289 2.00774 1.5252C7.58004 16.2854 9.69967 16.75 12 16.75c2.3003 0 4.42-.4646 5.9923-1.2508.7928-.3963 1.5055-.9086 2.0077-1.5252Z" style="fill-opacity:1" transform="translate(-22.35483335 -22.47245115) scale(23.20604)"/><path d="M12 10.75c2.3003 0 4.42-.4646 5.9923-1.25075.7928-.3964 1.5055-.90866 2.0077-1.52528V12c0 .5-1.7857 1.5911-2.6786 2.1576C15.9983 14.8192 14.118 15.25 12 15.25c-2.11795 0-3.99832-.4308-5.32144-1.0924C5.5 13.5683 4 12.5 4 12V7.97397c.50221.61662 1.21495 1.12888 2.00774 1.52528C7.58004 10.2854 9.69967 10.75 12 10.75Z" style="fill-opacity:1" transform="translate(-22.35483335 -22.47245115) scale(23.20604)"/><path d="M17.3214 8.15761C15.9983 8.81917 14.118 9.25 12 9.25c-2.11795 0-3.99832-.43083-5.32144-1.09239-.51472-.20165-1.67219-.84269-2.47706-1.87826-.13696-.17622-.19574-.40082-.16162-.62137.02295-.14829.05492-.30103.0959-.39572C4.82815 3.40554 8.0858 2 12 2c3.9142 0 7.1718 1.40554 7.8642 3.26226.041.09469.073.24743.0959.39572.0341.22055-.0246.44515-.1616.62137-.8049 1.03557-1.9623 1.67661-2.4771 1.87826z" style="fill-opacity:1" transform="translate(-22.35483335 -22.47245115) scale(23.20604)"/></g><path style="display:inline;fill-opacity:1;stroke-width:23.5293" d="M276.04706 168.09412-.000001 474.65883l150.164711-43.03528 30.1891-25.96241L512 37.341172 362.30588 80.258809Z"/></svg>
